<?xml version="1.0" encoding="utf-8" standalone="yes"?>
<!DOCTYPE svg PUBLIC "-//W3C//DTD SVG 1.1//EN" "http://www.w3.org/Graphics/SVG/1.1/DTD/svg11.dtd">
<svg width="746" height="542" viewBox="0 0 746 542" style="fill:none;stroke:none;fill-rule:evenodd;clip-rule:evenodd;stroke-linecap:round;stroke-linejoin:round;stroke-miterlimit:1.5;" version="1.1" xmlns="http://www.w3.org/2000/svg" xmlns:xlink="http://www.w3.org/1999/xlink"><style class="text-font-style fontImports" data-font-family="Roboto">@import url('https://fonts.googleapis.com/css2?family=Roboto:wght@400;700&amp;display=block');</style><g id="items" style="isolation: isolate"><g id="blend" style="mix-blend-mode: normal"><g id="g-root-0.g-0_fr_147crr1wibj0k-fill" data-item-order="-308958" transform="translate(15, 339)"></g><g id="g-root-1.g-1_fr_vbpri5wibjta-fill" data-item-order="-308948" transform="translate(63, 231)"></g><g id="g-root-2.g-2_fr_qvw9dpwibklk-fill" data-item-order="-308944" transform="translate(231, 243)"></g><g id="g-root-3.g-3_fr_mgp8cdwibi82-fill" data-item-order="-308940" transform="translate(399, 267)"></g><g id="g-root-4.g-4_fr_mgp8cdwibi84-fill" data-item-order="-308936" transform="translate(567, 267)"></g><g id="g-root-tx_marketin_dl283hwibj0u-fill" data-item-order="0" transform="translate(201, 39)"><g id="tx_marketin_dl283hwibj0u-fill" stroke="none" fill="#f4f4f4"><g><text style="font: bold 20px &quot;Roboto&quot;, sans-serif; white-space: pre;" font-weight="bold" font-size="20px" font-family="'Roboto', sans-serif"><tspan x="15.37" y="34" dominant-baseline="ideographic">Marketing and CRM Setup Process</tspan></text></g></g></g><g id="g-root-tx_createco_9lpq5wibklr-fill" data-item-order="0" transform="translate(39, 99)"><g id="tx_createco_9lpq5wibklr-fill" stroke="none" fill="#f4f4f4"><g><text style="font: bold 20px &quot;Roboto&quot;, sans-serif; white-space: pre;" font-weight="bold" font-size="20px" font-family="'Roboto', sans-serif"><tspan x="14.31" y="34" dominant-baseline="ideographic">Create Content</tspan></text></g></g></g><g id="g-root-tx_setupcrm_1ha2mwtwicy6h-fill" data-item-order="0" transform="translate(207, 99)"><g id="tx_setupcrm_1ha2mwtwicy6h-fill" stroke="none" fill="#f4f4f4"><g><text style="font: bold 20px &quot;Roboto&quot;, sans-serif; white-space: pre;" font-weight="bold" font-size="20px" font-family="'Roboto', sans-serif"><tspan x="31.64" y="34" dominant-baseline="ideographic">Setup CRM</tspan></text></g></g></g><g id="g-root-tx_advertis_zjf3i5wicxdv-fill" data-item-order="0" transform="translate(375, 99)"><g id="tx_advertis_zjf3i5wicxdv-fill" stroke="none" fill="#f4f4f4"><g><text style="font: bold 20px &quot;Roboto&quot;, sans-serif; white-space: pre;" font-weight="bold" font-size="20px" font-family="'Roboto', sans-serif"><tspan x="38.78" y="34" dominant-baseline="ideographic">Advertise</tspan></text></g></g></g><g id="g-root-tx_managead_dcy1z1wicwlp-fill" data-item-order="0" transform="translate(543, 99)"><g id="tx_managead_dcy1z1wicwlp-fill" stroke="none" fill="#f4f4f4"><g><text style="font: bold 20px &quot;Roboto&quot;, sans-serif; white-space: pre;" font-weight="bold" font-size="20px" font-family="'Roboto', sans-serif"><tspan x="28.5" y="34" dominant-baseline="ideographic">Manage Ad </tspan><tspan x="28.88" y="58" dominant-baseline="ideographic">Campaigns</tspan></text></g></g></g><g id="g-root-tx_developi_1ulj5a5wicwlk-fill" data-item-order="0" transform="translate(39, 135)"><g id="tx_developi_1ulj5a5wicwlk-fill" stroke="none" fill="#f4f4f4"><g><text style="font: 15px &quot;Roboto&quot;, sans-serif; white-space: pre;" font-size="15px" font-family="'Roboto', sans-serif"><tspan x="12.22" y="28" dominant-baseline="ideographic">Developing engaging </tspan><tspan x="15.13" y="46" dominant-baseline="ideographic">videos and graphics</tspan></text></g></g></g><g id="g-root-tx_configur_1cu94sdwicyyq-fill" data-item-order="0" transform="translate(207, 135)"><g id="tx_configur_1cu94sdwicyyq-fill" stroke="none" fill="#f4f4f4"><g><text style="font: 15px &quot;Roboto&quot;, sans-serif; white-space: pre;" font-size="15px" font-family="'Roboto', sans-serif"><tspan x="43.48" y="28" dominant-baseline="ideographic">Configuring </tspan><tspan x="50.32" y="46" dominant-baseline="ideographic">customer </tspan><tspan x="42.9" y="64" dominant-baseline="ideographic">relationship </tspan><tspan x="19.3" y="82" dominant-baseline="ideographic">management tools</tspan></text></g></g></g><g id="g-root-tx_launchin_m7yl4twicyys-fill" data-item-order="0" transform="translate(375, 135)"><g id="tx_launchin_m7yl4twicyys-fill" stroke="none" fill="#f4f4f4"><g><text style="font: 15px &quot;Roboto&quot;, sans-serif; white-space: pre;" font-size="15px" font-family="'Roboto', sans-serif"><tspan x="45.51" y="31" dominant-baseline="ideographic">Launching </tspan><tspan x="39.74" y="49" dominant-baseline="ideographic">promotional </tspan><tspan x="43.21" y="67" dominant-baseline="ideographic">campaigns</tspan></text></g></g></g><g id="g-root-tx_overseei_8x4julwicxdy-fill" data-item-order="0" transform="translate(543, 159)"><g id="tx_overseei_8x4julwicxdy-fill" stroke="none" fill="#f4f4f4"><g><text style="font: 15px &quot;Roboto&quot;, sans-serif; white-space: pre;" font-size="15px" font-family="'Roboto', sans-serif"><tspan x="30.42" y="31" dominant-baseline="ideographic">Overseeing and </tspan><tspan x="46.95" y="49" dominant-baseline="ideographic">optimizing </tspan><tspan x="20.7" y="67" dominant-baseline="ideographic">advertising efforts</tspan></text></g></g></g><g id="g-root-sele_v2zdrxwhyx37-fill" data-item-order="0" transform="translate(87, 255)"></g><g id="g-root-cog_hz0ha5whxfyj-fill" data-item-order="0" transform="translate(255, 267)"></g><g id="g-root-mega_1ha2q2lwhywi0-fill" data-item-order="0" transform="translate(423, 291)"></g><g id="g-root-prom_1ums3gdwicyrr-fill" data-item-order="0" transform="translate(591, 291)"></g><g id="g-root-0.g-0_fr_147crr1wibj0k-stroke" data-item-order="-308958" transform="translate(15, 339)"><g id="0.g-0_fr_147crr1wibj0k-stroke" fill="none" stroke-linecap="round" stroke-linejoin="round" stroke-miterlimit="4" stroke="#d3d3d3" stroke-width="2"><g><path d="M 706 152.7014C 694.0521 153.5246 682.043 153.9292 670 153.9919C 516.5872 154.7908 357.6818 96.3645 250 76.2489C 147.7845 57.1545 74.4699 52.1466 10 70.258M 656.687 91.570269L 629.9084 92.512669M 580.316 92.132469L 607.1132 92.657369M 530.7963 89.426469L 557.5398 91.150069M 481.4118 84.813269L 508.0838 87.521269M 432.2078 78.639869L 458.7723 82.150469M 383.1879 71.207769L 409.633 75.359569M 334.3103 62.801869L 360.6658 67.440069M 285.5071 53.742769L 311.8436 58.690469M 237.2438 44.678369L 263.1465 49.492169M 189.9384 37.696869L 215.6131 41.147369M 142.307 33.826469L 168.1496 35.482769M 120.424 33.355469L 94.5229 34.054869M 72.6907 35.837169L 47.0672 39.500569M 25.6287 44.017369L 10 48.465169M 706 87.298269L 679.4413 90.040269M 601.123 45.2909C 549.1136 49.3069 498.1257 49.3904 449.7574 46.8193M 433.5375 45.8528C 377.3524 42.1446 325.0415 34.9614 279.2066 26.384M 267.1615 24.0876C 207.4861 12.8052 157.5034 8.7131 114.1036 10.3447M 98.5167 11.1941C 65.6937 13.5519 36.6886 19.3221 10 27.7966M 706 31.6424C 677.2949 36.9982 648.5768 40.9325 620.1046 43.6523"></path></g></g></g><g id="g-root-1.g-1_fr_vbpri5wibjta-stroke" data-item-order="-308948" transform="translate(63, 231)"><g id="1.g-1_fr_vbpri5wibjta-stroke" fill="none" stroke-linecap="round" stroke-linejoin="round" stroke-miterlimit="4" stroke="#4f91fc" stroke-width="2"><g><path d="M 58 10C 84.5088 10 106 31.5256 106 58.0769C 106 79.2628 92.016 93.2821 76.5024 106C 70.5824 110.859 58 130 58 130C 58 130 45.4176 110.8526 39.4976 106C 23.9776 93.2885 10 79.2692 10 58.0769C 10 31.5256 31.4912 10 58 10ZM 58 98C 80.0914 98 98 80.0914 98 58C 98 35.9086 80.0914 18 58 18C 35.9086 18 18 35.9086 18 58C 18 80.0914 35.9086 98 58 98Z"></path></g></g></g><g id="g-root-2.g-2_fr_qvw9dpwibklk-stroke" data-item-order="-308944" transform="translate(231, 243)"><g id="2.g-2_fr_qvw9dpwibklk-stroke" fill="none" stroke-linecap="round" stroke-linejoin="round" stroke-miterlimit="4" stroke="#43dd93" stroke-width="2"><g><path d="M 58 10C 84.5088 10 106 31.5256 106 58.0769C 106 79.2628 92.016 93.2821 76.5024 106C 70.5824 110.859 58 130 58 130C 58 130 45.4176 110.8526 39.4976 106C 23.9776 93.2885 10 79.2692 10 58.0769C 10 31.5256 31.4912 10 58 10ZM 58 98C 80.0914 98 98 80.0914 98 58C 98 35.9086 80.0914 18 58 18C 35.9086 18 18 35.9086 18 58C 18 80.0914 35.9086 98 58 98Z"></path></g></g></g><g id="g-root-3.g-3_fr_mgp8cdwibi82-stroke" data-item-order="-308940" transform="translate(399, 267)"><g id="3.g-3_fr_mgp8cdwibi82-stroke" fill="none" stroke-linecap="round" stroke-linejoin="round" stroke-miterlimit="4" stroke="#ffe711" stroke-width="2"><g><path d="M 58 10C 84.5088 10 106 31.5256 106 58.0769C 106 79.2628 92.016 93.2821 76.5024 106C 70.5824 110.859 58 130 58 130C 58 130 45.4176 110.8526 39.4976 106C 23.9776 93.2885 10 79.2692 10 58.0769C 10 31.5256 31.4912 10 58 10ZM 58 98C 80.0914 98 98 80.0914 98 58C 98 35.9086 80.0914 18 58 18C 35.9086 18 18 35.9086 18 58C 18 80.0914 35.9086 98 58 98Z"></path></g></g></g><g id="g-root-4.g-4_fr_mgp8cdwibi84-stroke" data-item-order="-308936" transform="translate(567, 267)"><g id="4.g-4_fr_mgp8cdwibi84-stroke" fill="none" stroke-linecap="round" stroke-linejoin="round" stroke-miterlimit="4" stroke="#f79438" stroke-width="2"><g><path d="M 58 10C 84.5088 10 106 31.5256 106 58.0769C 106 79.2628 92.016 93.2821 76.5024 106C 70.5824 110.859 58 130 58 130C 58 130 45.4176 110.8526 39.4976 106C 23.9776 93.2885 10 79.2692 10 58.0769C 10 31.5256 31.4912 10 58 10ZM 58 98C 80.0914 98 98 80.0914 98 58C 98 35.9086 80.0914 18 58 18C 35.9086 18 18 35.9086 18 58C 18 80.0914 35.9086 98 58 98Z"></path></g></g></g><g id="g-root-tx_marketin_dl283hwibj0u-stroke" data-item-order="0" transform="translate(201, 39)"></g><g id="g-root-tx_createco_9lpq5wibklr-stroke" data-item-order="0" transform="translate(39, 99)"></g><g id="g-root-tx_setupcrm_1ha2mwtwicy6h-stroke" data-item-order="0" transform="translate(207, 99)"></g><g id="g-root-tx_advertis_zjf3i5wicxdv-stroke" data-item-order="0" transform="translate(375, 99)"></g><g id="g-root-tx_managead_dcy1z1wicwlp-stroke" data-item-order="0" transform="translate(543, 99)"></g><g id="g-root-tx_developi_1ulj5a5wicwlk-stroke" data-item-order="0" transform="translate(39, 135)"></g><g id="g-root-tx_configur_1cu94sdwicyyq-stroke" data-item-order="0" transform="translate(207, 135)"></g><g id="g-root-tx_launchin_m7yl4twicyys-stroke" data-item-order="0" transform="translate(375, 135)"></g><g id="g-root-tx_overseei_8x4julwicxdy-stroke" data-item-order="0" transform="translate(543, 159)"></g><g id="g-root-sele_v2zdrxwhyx37-stroke" data-item-order="0" transform="translate(87, 255)"><g id="sele_v2zdrxwhyx37-stroke" fill="none" stroke-linecap="round" stroke-linejoin="round" stroke-miterlimit="4" stroke="#4f91fc" stroke-width="2"><g><path d="M 42.299999 27.2192C 40.900002 26.019199 39.900002 24.2192 39.900002 22.019199L 39.900002 18.419201C 39.900002 15.4192 41.700001 12.6192 44.5 11.819192C 49.099998 10.419192 53.5 13.819201 53.5 18.2192L 53.5 22.019199C 53.5 24.019199 52.700001 25.819199 51.299999 27.019199M 39.900002 21.019501C 39.900002 21.019501 44.5 22.019501 47.900002 17.619499C 49.5 19.4195 51.299999 20.019501 53.5 19.4195M 10 10M 49.5 35.019402L 45.900002 25.81934L 55.099998 29.41934L 49.5 35.019402ZM 10 10M 52.299999 32.2192L 56.5 36.419201M 35.5 47.5C 35.5 48.700001 34.700001 49.5 33.5 49.5L 13.5 49.5C 12.3 49.5 11.5 48.700001 11.5 47.5L 11.5 29.5C 11.5 28.299999 12.3 27.5 13.5 27.5L 33.5 27.5C 34.700001 27.5 35.5 28.299999 35.5 29.5L 35.5 47.5ZM 16.73914 49.512402L 13.5 56.5M 23.5 27.5L 23.5 22.5M 10 10M 30.255199 49.5L 33.5 56.5M 23.70002 38.699799C 24.900021 39.899799 24.900021 41.499802 23.70002 42.699799C 21.45072 44.949001 17.49218 43.7812 16.67004 42.699799C 18.5578 41.817001 18.390621 39.789001 19.70002 38.699799C 20.89724 37.636398 22.500019 37.499802 23.70002 38.699799ZM 10 10M 23.984501 39.015602L 29.099979 33.9002"></path></g></g></g><g id="g-root-cog_hz0ha5whxfyj-stroke" data-item-order="0" transform="translate(255, 267)"><g id="cog_hz0ha5whxfyj-stroke" fill="none" stroke-linecap="round" stroke-linejoin="round" stroke-miterlimit="4" stroke="#43dd93" stroke-width="2"><g><path d="M 11.002 18.98L 49.866001 18.98M 11.002 35.956001L 28.110001 35.956001M 11.002 27.48L 38.256001 27.48M 26.875999 18.98L 26.875999 44.740002M 38.256001 18.98L 38.256001 29.403999M 45.23 46.27C 46.481884 46.321423 47.6394 45.606922 48.15453 44.464771C 48.669659 43.322624 48.439022 41.98204 47.571808 41.077713C 46.704597 40.173386 45.374851 39.886803 44.212132 40.353645C 43.049408 40.82048 42.287052 41.94706 42.285999 43.199997C 42.267239 43.998089 42.567341 44.770741 43.119884 45.346928C 43.672424 45.923119 44.431828 46.255322 45.23 46.27ZM 47.728001 31.348L 48.596001 34.316002C 48.862206 35.326576 49.880409 35.945278 50.900002 35.716L 53.790001 35.017998C 54.927731 34.763302 56.095905 35.297112 56.647999 36.323997C 57.221844 37.368797 57.079494 38.661156 56.292 39.556L 54.268002 41.821999C 53.568047 42.618015 53.568047 43.809986 54.268002 44.605999L 56.292 46.877998C 57.078148 47.772022 57.219707 49.062847 56.646 50.105999C 56.094482 51.126347 54.93145 51.655144 53.799999 51.400002L 50.91 50.703999C 49.890228 50.473614 48.871307 51.092751 48.605999 52.104L 47.737999 55.066002C 47.443638 56.205982 46.415371 57.00246 45.238003 57.00246C 44.060631 57.00246 43.032364 56.205982 42.737999 55.066002L 41.870003 52.098C 41.603794 51.087421 40.58559 50.468723 39.566002 50.697998L 36.678001 51.396C 35.540466 51.654018 34.370911 51.119198 33.821999 50.09C 33.248291 49.046848 33.389851 47.756023 34.176003 46.862L 36.188 44.599998C 36.889729 43.804657 36.889729 42.611343 36.188004 41.816002L 34.166 39.543999C 33.377716 38.650291 33.235275 37.357933 33.809998 36.313999C 34.359127 35.283955 35.529823 34.748993 36.667999 35.008003L 39.556 35.706001C 40.575592 35.93528 41.593796 35.316578 41.860001 34.306L 42.728001 31.336C 43.025089 30.196716 44.055271 29.402695 45.232647 29.405519C 46.410027 29.408346 47.436386 30.207304 47.728001 31.348001ZM 26.346001 44.731998L 15.102 44.731998C 12.84426 44.731998 11.014 42.901741 11.014 40.643997L 11.014 15.087999C 11.014 12.830259 12.84426 11 15.101999 11L 45.768002 11C 48.025738 11 49.855999 12.830259 49.855999 15.087999L 49.855999 25.026001"></path></g></g></g><g id="g-root-mega_1ha2q2lwhywi0-stroke" data-item-order="0" transform="translate(423, 291)"><g id="mega_1ha2q2lwhywi0-stroke" fill="none" stroke-linecap="round" stroke-linejoin="round" stroke-miterlimit="4" stroke="#ffe711" stroke-width="2"><g><path d="M 29.07 47.293999L 14.07 47.293999C 12.413146 47.294003 11.07 45.950855 11.07 44.294003L 11.07 14.294001C 11.07 12.637146 12.413146 11.294 14.07 11.294L 53.07 11.294C 54.726856 11.294 56.07 12.637146 56.07 14.294001L 56.07 36.293999M 11.07 20.290001L 56.07 20.290001M 11.07 38.293999L 38.57 38.293999M 22.07 11.294L 22.07 20.293999M 33.57 11.294L 33.57 20.293999M 45.07 11.294L 45.07 20.293999M 22.07 38.293999L 22.07 47.293999M 41.228001 52.506001L 38.966 53.576C 36.884991 54.560726 34.399727 53.672009 33.415001 51.591C 32.430275 49.509991 33.318993 47.024723 35.400002 46.040001L 37.662003 44.970001ZM 41.228001 52.506001C 45.648624 50.414223 50.589371 49.677284 55.428001 50.388L 56.925999 50.608002L 49.082001 34.029999L 48.301998 35.327999C 45.783867 39.522472 42.080208 42.877476 37.658001 44.970001ZM 41.228001 52.506001C 42.170696 54.498665 43.890038 56.017006 45.984001 56.706001"></path></g></g></g><g id="g-root-prom_1ums3gdwicyrr-stroke" data-item-order="0" transform="translate(591, 291)"><g id="prom_1ums3gdwicyrr-stroke" fill="none" stroke-linecap="round" stroke-linejoin="round" stroke-miterlimit="4" stroke="#f79438" stroke-width="2"><g><path d="M 17.200081 23.9004C 19.40922 23.9004 21.200081 22.10952 21.200081 19.9004C 21.200081 17.691259 19.40922 15.9004 17.200081 15.9004C 14.99094 15.9004 13.20008 17.691259 13.20008 19.9004C 13.20008 22.10952 14.99094 23.9004 17.200081 23.9004ZM 29.799919 33.5C 32.009003 33.5 33.799999 31.7092 33.799999 29.5C 33.799999 27.290859 32.009003 25.5 29.799919 25.5C 27.59078 25.5 25.799919 27.290859 25.799919 29.5C 25.799919 31.7092 27.59078 33.5 29.799919 33.5ZM 38.799999 19.5C 41.009003 19.5 42.799999 17.709141 42.799999 15.5C 42.799999 13.29086 41.009003 11.5 38.799999 11.5C 36.590797 11.5 34.799999 13.29086 34.799999 15.5C 34.799999 17.709141 36.590797 19.5 38.799999 19.5ZM 50.799801 30.5C 53.008999 30.5 54.799801 28.709141 54.799801 26.5C 54.799801 24.290859 53.008999 22.5 50.799801 22.5C 48.590599 22.5 46.799801 24.290859 46.799801 26.5C 46.799801 28.709141 48.590599 30.5 50.799801 30.5ZM 10 10M 20.116459 22.646L 26.77272 26.881821M 10 10M 41.821602 18.119621L 47.872601 23.76734M 10 10M 31.855801 26.072861L 36.8228 18.967281M 24.799919 39.5L 30.799999 46.5L 42.799999 46.5L 48.799999 39.5L 24.799919 39.5ZM 10 10M 30.799999 46.5L 32.400002 54.900002C 32.599998 55.900002 33.400002 56.5 34.400002 56.5L 39.200001 56.5C 40.200001 56.5 41 55.900002 41.200001 54.900002L 42.799999 46.5"></path></g></g></g></g></g></svg>